<?xml version="1.0" encoding="UTF-8"?>
<!DOCTYPE svg PUBLIC "-//W3C//DTD SVG 1.1//EN" "http://www.w3.org/Graphics/SVG/1.1/DTD/svg11.dtd">
<svg xmlns="http://www.w3.org/2000/svg" version="1.1" width="500px" height="500px" style="shape-rendering:geometricPrecision; text-rendering:geometricPrecision; image-rendering:optimizeQuality; fill-rule:evenodd; clip-rule:evenodd" xmlns:xlink="http://www.w3.org/1999/xlink">
<g><path style="opacity:1" fill="#000000" d="M 109.5,1.5 C 137.263,1.91912 161.929,10.7525 183.5,28C 188.833,30.3333 194.167,32.6667 199.5,35C 227.392,37.8418 255.058,42.1751 282.5,48C 299.896,52.0204 316.562,58.0204 332.5,66C 336.486,66.4988 340.486,66.6655 344.5,66.5C 344.414,64.323 343.747,62.323 342.5,60.5C 342.709,59.914 343.043,59.414 343.5,59C 337.713,56.6065 332.046,53.9398 326.5,51C 324.622,49.4571 323.122,47.6238 322,45.5C 321.21,39.4478 321.376,33.4478 322.5,27.5C 322.833,27.1667 323.167,26.8333 323.5,26.5C 337.7,34.5627 338.033,33.896 324.5,24.5C 322.386,20.9582 320.886,17.2915 320,13.5C 323.5,19 328,23.5 333.5,27C 352.663,32.7488 370.33,41.4155 386.5,53C 393.287,60.4669 398.453,68.9669 402,78.5C 405.46,92.1318 408.793,105.799 412,119.5C 423.707,136.188 434.04,154.188 443,173.5C 450.723,198.127 456.39,223.127 460,248.5C 462.761,247.501 464.094,245.501 464,242.5C 465.881,229.305 464.214,216.638 459,204.5C 458.808,195.457 458.141,186.457 457,177.5C 451.76,165.953 448.26,153.953 446.5,141.5C 446.482,132.904 448.649,124.904 453,117.5C 454.019,116.313 455.186,115.313 456.5,114.5C 457.585,128.083 460.418,141.416 465,154.5C 465.667,155.833 466.333,157.167 467,158.5C 467.654,159.696 468.154,159.696 468.5,158.5C 464.819,151.623 462.652,144.289 462,136.5C 460.175,122.491 460.175,108.491 462,94.5C 462.333,93.8333 462.667,93.1667 463,92.5C 464.001,106.175 466.667,119.508 471,132.5C 479.569,148.877 486.569,165.877 492,183.5C 492.742,192.464 491.408,201.13 488,209.5C 481.227,226.381 472.894,242.381 463,257.5C 460.218,264.297 458.218,271.297 457,278.5C 456.558,280.679 455.558,281.345 454,280.5C 450.72,288.833 448.72,297.499 448,306.5C 442.577,328.519 432.077,347.685 416.5,364C 410.247,369.625 402.914,372.792 394.5,373.5C 382.69,372.523 375.857,366.19 374,354.5C 373.396,345.122 372.396,335.789 371,326.5C 367.996,316.822 364.996,307.156 362,297.5C 362.232,286.12 362.899,274.787 364,263.5C 361.839,258.508 359.172,253.841 356,249.5C 345.146,240.402 334.479,231.069 324,221.5C 314.286,211.743 307.952,200.076 305,186.5C 302.888,175.167 301.221,163.834 300,152.5C 304.476,162.12 309.476,171.453 315,180.5C 313.548,175.665 312.881,170.665 313,165.5C 325.253,172.418 333.92,182.418 339,195.5C 340.389,204.888 342.055,214.221 344,223.5C 347.816,232.31 353.483,239.643 361,245.5C 361.167,244.833 361.333,244.167 361.5,243.5C 356.473,218.534 351.64,193.534 347,168.5C 344.113,161.272 340.779,154.272 337,147.5C 335.127,145.291 332.96,143.458 330.5,142C 321.589,137.142 312.589,132.476 303.5,128C 295.524,120.356 287.858,112.356 280.5,104C 276.494,101.325 272.494,98.658 268.5,96C 272.393,95.6002 276.06,96.4335 279.5,98.5C 279.833,98.3333 280.167,98.1667 280.5,98C 278.283,96.7316 276.283,95.2316 274.5,93.5C 275.688,92.16 277.188,91.4934 279,91.5C 284.186,92.2108 289.353,93.0441 294.5,94C 299.563,96.7022 304.897,98.5356 310.5,99.5C 310.358,96.383 309.024,93.883 306.5,92C 275.128,72.1112 240.961,59.9445 204,55.5C 190.868,57.1452 177.701,57.9785 164.5,58C 154.646,56.4943 144.979,54.1609 135.5,51C 123.191,47.5315 110.858,47.1982 98.5,50C 95.7058,51.8204 92.7058,52.8204 89.5,53C 95.8008,44.7161 104.134,39.7161 114.5,38C 128.537,37.3348 142.537,37.8348 156.5,39.5C 160.555,39.4247 164.555,38.9247 168.5,38C 150.314,32.9392 131.98,32.2725 113.5,36C 108.261,37.4128 103.261,39.4128 98.5,42C 82.2806,53.1959 65.2806,63.1959 47.5,72C 37.6037,76.3921 27.2703,78.3921 16.5,78C 22.8441,74.4962 28.8441,70.4962 34.5,66C 50.2642,48.7218 67.9309,33.8884 87.5,21.5C 94.9988,17.2506 102.999,14.4172 111.5,13C 122.562,12.4371 133.562,12.7704 144.5,14C 132.635,10.1614 120.469,7.99476 108,7.5C 91.0763,8.1997 74.243,9.36637 57.5,11C 63.1989,8.4561 69.1989,6.78943 75.5,6C 86.939,4.15454 98.2723,2.65454 109.5,1.5 Z"/></g>
<g><path style="opacity:1" fill="#fefefe" d="M 274.5,61.5 C 276.288,60.3775 278.288,60.2109 280.5,61C 345.445,84.6125 385.612,130.113 401,197.5C 401.667,203.833 401.667,210.167 401,216.5C 398.423,229.449 396.089,242.449 394,255.5C 393.215,259.477 392.049,263.311 390.5,267C 389.5,267.667 388.5,267.667 387.5,267C 383.209,261.918 380.376,256.084 379,249.5C 375.741,228.43 372.075,207.43 368,186.5C 359.934,147.854 342.1,114.688 314.5,87C 302.635,76.2318 289.301,67.7318 274.5,61.5 Z"/></g>
<g><path style="opacity:1" fill="#000000" d="M 144.5,80.5 C 147.365,80.0548 149.865,80.7215 152,82.5C 157.938,101.648 164.271,120.648 171,139.5C 173.552,143.719 177.052,146.886 181.5,149C 200.183,147.44 216.517,140.44 230.5,128C 236.132,121.36 242.632,115.86 250,111.5C 250.772,111.645 251.439,111.978 252,112.5C 256.225,134.7 253.558,156.034 244,176.5C 241.705,179.797 239.038,182.797 236,185.5C 235.333,187.5 235.333,189.5 236,191.5C 246.131,199.293 254.464,208.627 261,219.5C 258.956,238.266 262.289,255.933 271,272.5C 280,284.833 289,297.167 298,309.5C 300.694,313.554 302.861,317.888 304.5,322.5C 303.872,324.258 302.872,325.758 301.5,327C 295.773,329.798 289.773,331.798 283.5,333C 257.314,339.198 233.647,334.198 212.5,318C 190.128,305.803 166.795,303.47 142.5,311C 130.087,320.327 123.92,332.827 124,348.5C 120.91,344.318 118.91,339.651 118,334.5C 116.428,323.171 116.095,311.838 117,300.5C 96.9855,340.506 106.152,371.673 144.5,394C 163.377,403.605 182.377,412.939 201.5,422C 210.601,427.6 218.268,434.767 224.5,443.5C 223.833,443.833 223.167,444.167 222.5,444.5C 209.429,439.364 196.095,437.864 182.5,440C 193.221,440.597 203.554,442.93 213.5,447C 234.167,455.333 254.833,463.667 275.5,472C 292.588,476.14 309.255,474.807 325.5,468C 350.378,459.161 371.545,444.994 389,425.5C 390.046,426.772 390.546,428.272 390.5,430C 389.563,434.56 388.73,439.06 388,443.5C 397.891,422.609 413.391,407.442 434.5,398C 447.001,389.154 456.834,377.987 464,364.5C 467.492,356.847 471.492,349.513 476,342.5C 478.675,334.454 481.341,326.454 484,318.5C 485.088,320.288 485.588,322.288 485.5,324.5C 484.234,341.132 479.067,356.465 470,370.5C 456.096,391.75 439.93,411.25 421.5,429C 422.167,429.667 422.833,429.667 423.5,429C 425.577,426.335 427.91,424.835 430.5,424.5C 403.005,459.324 367.505,480.657 324,488.5C 275.504,498.914 227.004,499.08 178.5,489C 141.388,478.288 109.054,459.621 81.5,433C 60.9824,419.482 44.1491,402.315 31,381.5C 30.3123,380.668 30.479,380.002 31.5,379.5C 33.4829,380.982 35.3163,382.649 37,384.5C 25.195,363.877 15.195,342.21 7,319.5C 3.77541,306.704 1.94208,293.704 1.5,280.5C 2.32724,250.507 2.4939,220.507 2,190.5C 2.13232,185.253 3.13232,180.253 5,175.5C 5.33333,178.167 5.66667,180.833 6,183.5C 9.99985,167.834 14.9998,152.501 21,137.5C 25.9709,127.192 33.1376,118.692 42.5,112C 43.1667,111.333 43.8333,111.333 44.5,112C 34.1274,123.117 29.294,136.283 30,151.5C 30.5,153.333 31.6667,154.5 33.5,155C 41.8421,154.111 49.8421,151.778 57.5,148C 68.2712,144.479 76.4378,147.646 82,157.5C 82.7848,152.124 83.7848,146.791 85,141.5C 86.1181,137.544 88.6181,135.211 92.5,134.5C 91.5423,144.553 96.0423,150.886 106,153.5C 107.982,153.01 109.649,152.01 111,150.5C 115.644,136.588 119.978,122.588 124,108.5C 127.7,99.591 132.533,91.4243 138.5,84C 140.432,82.5415 142.432,81.3748 144.5,80.5 Z"/></g>
<g><path style="opacity:1" fill="#fefefe" d="M 182.5,205.5 C 189.39,207.946 195.724,211.446 201.5,216C 197.035,216.313 193.868,218.479 192,222.5C 190.874,226.749 190.208,231.082 190,235.5C 185.63,226.018 183.13,216.018 182.5,205.5 Z"/></g>
<g><path style="opacity:1" fill="#fefefe" d="M 217.5,236.5 C 222.938,245.657 227.105,255.323 230,265.5C 221.064,260.616 211.898,256.116 202.5,252C 198.374,249.9 195.874,246.733 195,242.5C 201.667,249.167 208.333,249.167 215,242.5C 215.938,240.512 216.772,238.512 217.5,236.5 Z"/></g>
<g><path style="opacity:1" fill="#fefefe" d="M 416.5,315.5 C 424.74,314.399 429.073,318.066 429.5,326.5C 429.378,332.123 426.545,334.79 421,334.5C 418.41,334.624 416.077,333.958 414,332.5C 410.017,325.945 410.851,320.278 416.5,315.5 Z"/></g>
<g><path style="opacity:1" fill="#000000" d="M 357.5,359.5 C 361.308,359.163 364.974,359.663 368.5,361C 362.078,363.923 357.078,368.423 353.5,374.5C 352.914,374.291 352.414,373.957 352,373.5C 350.015,367.04 351.848,362.373 357.5,359.5 Z"/></g>
<g><path style="opacity:1" fill="#000000" d="M 366.5,368.5 C 367.675,368.281 368.675,368.614 369.5,369.5C 367.237,373.79 365.071,378.123 363,382.5C 358.683,379.689 358.35,376.356 362,372.5C 363.397,370.93 364.897,369.596 366.5,368.5 Z"/></g>
<g><path style="opacity:1" fill="#000000" d="M 422.5,368.5 C 427.896,372.107 430.896,377.274 431.5,384C 431.18,386.799 430.18,389.299 428.5,391.5C 426.157,389.005 424.657,386.005 424,382.5C 423.006,377.882 422.506,373.215 422.5,368.5 Z"/></g>
<g><path style="opacity:1" fill="#000000" d="M 415.5,372.5 C 418.038,375.245 419.538,378.578 420,382.5C 420.301,385.507 420.135,388.507 419.5,391.5C 417.089,391.863 415.589,390.863 415,388.5C 414.568,383.154 414.734,377.82 415.5,372.5 Z"/></g>
</svg>
