<svg fill="none" xmlns="http://www.w3.org/2000/svg" viewBox="0 0 490.7 494.94">
    <path fill="#000" d="m474.5,341c-4.51,7.01-8.51,14.35-12,22-7.17,13.49-17,24.65-29.5,33.5-21.11,9.44-36.61,24.61-46.5,45.5.73-4.44,1.56-8.94,2.5-13.5.05-1.73-.45-3.23-1.5-4.5-17.45,19.49-38.62,33.66-63.5,42.5-16.24,6.81-32.91,8.14-50,4-20.67-8.33-41.33-16.67-62-25-9.95-4.07-20.28-6.4-31-7,13.6-2.14,26.93-.64,40,4.5.67-.33,1.33-.67,2-1-6.23-8.73-13.9-15.9-23-21.5-19.12-9.06-38.12-18.4-57-28-38.35-22.33-47.51-53.49-27.5-93.5-.9,11.34-.57,22.67,1,34,.91,5.15,2.91,9.82,6,14-.08-15.67,6.09-28.17,18.5-37.5,24.29-7.53,47.63-5.2,70,7,21.15,16.2,44.81,21.2,71,15,6.27-1.2,12.27-3.2,18-6,1.37-1.24,2.37-2.74,3-4.5-1.64-4.61-3.81-8.95-6.5-13-9-12.33-18-24.67-27-37-8.71-16.57-12.04-34.23-10-53-6.54-10.87-14.87-20.21-25-28-.67-2-.67-4,0-6,3.04-2.7,5.71-5.7,8-9,9.56-20.47,12.23-41.8,8-64-.56-.52-1.23-.85-2-1-7.37,4.36-13.87,9.86-19.5,16.5-13.98,12.44-30.32,19.44-49,21-4.45-2.11-7.95-5.28-10.5-9.5-6.73-18.85-13.06-37.85-19-57-2.14-1.78-4.64-2.45-7.5-2-2.07.87-4.07,2.04-6,3.5-5.97,7.42-10.8,15.59-14.5,24.5-4.02,14.09-8.36,28.09-13,42-1.35,1.51-3.02,2.51-5,3-9.96-2.61-14.46-8.95-13.5-19-3.88.71-6.38,3.04-7.5,7-1.22,5.29-2.22,10.62-3,16-5.56-9.85-13.73-13.02-24.5-9.5-7.66,3.78-15.66,6.11-24,7-1.83-.5-3-1.67-3.5-3.5-.71-15.22,4.13-28.38,14.5-39.5-.67-.67-1.33-.67-2,0-9.36,6.69-16.53,15.19-21.5,25.5-6,15-11,30.33-15,46-.33-2.67-.67-5.33-1-8-1.87,4.75-2.87,9.75-3,15,.49,30.01.33,60.01-.5,90,.44,13.2,2.28,26.2,5.5,39,8.2,22.71,18.2,44.38,30,65-1.68-1.85-3.52-3.52-5.5-5-1.02.5-1.19,1.17-.5,2,13.15,20.82,29.98,37.98,50.5,51.5,27.55,26.62,59.89,45.29,97,56,48.5,10.08,97,9.91,145.5-.5,43.51-7.84,79.01-29.18,106.5-64-2.59.33-4.92,1.83-7,4.5-.67.67-1.33.67-2,0,18.43-17.75,34.6-37.25,48.5-58.5,9.07-14.04,14.23-29.37,15.5-46,.09-2.21-.41-4.21-1.5-6-2.66,7.95-5.33,15.95-8,24Zm-261-100c.94-1.99,1.77-3.99,2.5-6,5.44,9.16,9.6,18.82,12.5,29-8.94-4.88-18.1-9.38-27.5-13.5-4.13-2.1-6.63-5.27-7.5-9.5,6.67,6.67,13.33,6.67,20,0Zm-13.5-26.5c-4.46.31-7.63,2.48-9.5,6.5-1.13,4.25-1.79,8.58-2,13-4.37-9.48-6.87-19.48-7.5-30,6.89,2.45,13.22,5.95,19,10.5Z"/>
    <path fill="#000" d="m490.5,182c-5.43-17.62-12.43-34.62-21-51-4.33-12.99-7-26.33-8-40-.33.67-.67,1.33-1,2-1.83,13.99-1.83,27.99,0,42,.65,7.79,2.82,15.12,6.5,22-.35,1.2-.85,1.2-1.5,0-.67-1.33-1.33-2.67-2-4-4.58-13.08-7.41-26.42-8.5-40-1.31.81-2.48,1.81-3.5,3-4.35,7.4-6.52,15.4-6.5,24,1.76,12.45,5.26,24.45,10.5,36,1.14,8.96,1.81,17.96,2,27,5.21,12.14,6.88,24.8,5,38,.09,3-1.24,5-4,6-3.61-25.37-9.28-50.37-17-75-8.96-19.31-19.29-37.31-31-54-3.21-13.7-6.54-27.37-10-41-3.55-9.53-8.71-18.03-15.5-25.5-16.17-11.58-33.84-20.25-53-26-5.5-3.5-10-8-13.5-13.5.89,3.79,2.39,7.46,4.5,11,13.53,9.4,13.2,10.06-1,2-.33.33-.67.67-1,1-1.12,5.95-1.29,11.95-.5,18,1.12,2.12,2.62,3.96,4.5,5.5,5.55,2.94,11.21,5.61,17,8-.46.41-.79.91-1,1.5,1.25,1.82,1.91,3.82,2,6-4.01.17-8.01,0-12-.5-15.94-7.98-32.6-13.98-50-18-27.44-5.82-55.11-10.16-83-13-5.33-2.33-10.67-4.67-16-7C160.43,9.25,135.76.42,108,0c-11.23,1.15-22.56,2.65-34,4.5-6.3.79-12.3,2.46-18,5,16.74-1.63,33.58-2.8,50.5-3.5,12.47.49,24.64,2.66,36.5,6.5-10.94-1.23-21.94-1.56-33-1-8.5,1.42-16.5,4.25-24,8.5-19.57,12.39-37.24,27.22-53,44.5-5.66,4.5-11.66,8.5-18,12,10.77.39,21.1-1.61,31-6,17.78-8.8,34.78-18.8,51-30,4.76-2.59,9.76-4.59,15-6,18.48-3.73,36.81-3.06,55,2-3.95.92-7.95,1.42-12,1.5-13.96-1.67-27.96-2.17-42-1.5-10.37,1.72-18.7,6.72-25,15,3.21-.18,6.21-1.18,9-3,12.36-2.8,24.69-2.47,37,1,9.48,3.16,19.15,5.49,29,7,13.2-.02,26.37-.85,39.5-2.5,36.96,4.44,71.13,16.61,102.5,36.5,2.52,1.88,3.86,4.38,4,7.5-5.6-.96-10.94-2.8-16-5.5-5.15-.96-10.31-1.79-15.5-2.5-1.81,0-3.31.66-4.5,2,1.78,1.73,3.78,3.23,6,4.5-.33.17-.67.33-1,.5-3.44-2.07-7.11-2.9-11-2.5,3.99,2.66,7.99,5.33,12,8,7.36,8.36,15.02,16.36,23,24,9.09,4.48,18.09,9.14,27,14,2.46,1.46,4.63,3.29,6.5,5.5,3.78,6.77,7.11,13.77,10,21,4.64,25.03,9.47,50.03,14.5,75-.17.67-.33,1.33-.5,2-7.52-5.86-13.18-13.19-17-22-1.95-9.28-3.61-18.61-5-28-5.08-13.08-13.75-23.08-26-30-.12,5.16.55,10.16,2,15-5.52-9.05-10.52-18.38-15-28,1.22,11.33,2.89,22.67,5,34,2.95,13.58,9.29,25.24,19,35,10.48,9.57,21.15,18.9,32,28,3.17,4.34,5.84,9.01,8,14-1.1,11.29-1.77,22.62-2,34,3,9.66,6,19.32,9,29,1.4,9.29,2.4,18.62,3,28,1.86,11.69,8.69,18.02,20.5,19,8.41-.71,15.75-3.88,22-9.5,15.58-16.32,26.08-35.48,31.5-57.5.72-9,2.72-17.67,6-26,1.56.84,2.56.18,3-2,1.22-7.2,3.22-14.2,6-21,9.89-15.12,18.23-31.12,25-48,3.41-8.37,4.74-17.04,4-26Zm-91,33c-2.58,12.95-4.91,25.95-7,39-.78,3.98-1.95,7.81-3.5,11.5-1,.67-2,.67-3,0-4.29-5.08-7.12-10.92-8.5-17.5-3.26-21.07-6.92-42.07-11-63-8.07-38.65-25.9-71.81-53.5-99.5-11.86-10.77-25.2-19.27-40-25.5,1.79-1.12,3.79-1.29,6-.5,64.95,23.61,105.11,69.11,120.5,136.5.67,6.33.67,12.67,0,19Zm20,118c-2.59.12-4.92-.54-7-2-3.98-6.55-3.15-12.22,2.5-17,8.24-1.1,12.57,2.57,13,11-.12,5.62-2.95,8.29-8.5,8Z"/>
    <path fill="#000" d="m356,358c-5.65,2.87-7.48,7.54-5.5,14,.41.46.91.79,1.5,1,3.58-6.08,8.58-10.58,15-13.5-3.53-1.34-7.19-1.84-11-1.5Z"/>
    <path fill="#000" d="m360.5,371c-3.65,3.86-3.32,7.19,1,10,2.07-4.38,4.24-8.71,6.5-13-.83-.89-1.83-1.22-3-1-1.6,1.1-3.1,2.43-4.5,4Z"/>
    <path fill="#000" d="m430,382.5c-.6-6.73-3.6-11.89-9-15.5,0,4.71.51,9.38,1.5,14,.66,3.51,2.16,6.51,4.5,9,1.68-2.2,2.68-4.7,3-7.5Z"/>
    <path fill="#000" d="m418,390c.64-2.99.8-5.99.5-9-.46-3.92-1.96-7.26-4.5-10-.77,5.32-.93,10.65-.5,16,.59,2.36,2.09,3.36,4.5,3Z"/>
</svg>